<svg
  width="40"
  height="40"
  viewBox="0 0 40 40"
  fill="none"
  xmlns="http://www.w3.org/2000/svg"
>
<path
    d="M13.237 19.7602C13.237 16.1541 16.1598 13.2297 19.7661 13.2297C23.3725 13.2297 26.297 16.1541 26.297 19.7602C26.297 23.3663 23.3725 26.2908 19.7661 26.2908C16.1598 26.2908 13.237 23.3663 13.237 19.7602ZM9.70655 19.7602C9.70655 25.316 14.2101 29.8195 19.7661 29.8195C25.3222 29.8195 29.8257 25.316 29.8257 19.7602C29.8257 14.2045 25.3222 9.70103 19.7661 9.70103C14.2101 9.70103 9.70655 14.2045 9.70655 19.7602ZM27.8731 9.30227C27.8731 10.5998 28.9254 11.6537 30.2244 11.6537C31.5222 11.6537 32.576 10.5998 32.576 9.30227C32.576 8.00472 31.5238 6.95244 30.2244 6.95244C28.9254 6.95244 27.8731 8.00472 27.8731 9.30227ZM11.8508 35.7058C9.94076 35.6189 8.90267 35.3007 8.21271 35.0318C7.29805 34.6757 6.6461 34.2516 5.9593 33.5665C5.27411 32.8814 4.84844 32.2293 4.49397 31.3148C4.22497 30.6249 3.90689 29.5869 3.81984 27.6768C3.72491 25.6118 3.70592 24.9915 3.70592 19.7602C3.70592 14.529 3.72649 13.9103 3.81984 11.8436C3.90689 9.93363 4.22655 8.89718 4.49397 8.20569C4.85002 7.29106 5.27411 6.63913 5.9593 5.95236C6.64452 5.26719 7.29647 4.84155 8.21271 4.48708C8.90267 4.21807 9.94076 3.90002 11.8508 3.813C13.9159 3.71805 14.5362 3.69906 19.7661 3.69906C24.9977 3.69906 25.6164 3.71963 27.6832 3.813C29.5931 3.90002 30.6295 4.21965 31.3212 4.48708C32.2357 4.84155 32.8879 5.26719 33.5745 5.95236C34.2599 6.63755 34.684 7.29106 35.0398 8.20569C35.309 8.8956 35.6269 9.93363 35.7141 11.8436C35.8089 13.9103 35.8279 14.529 35.8279 19.7602C35.8279 24.9899 35.8089 25.6102 35.7141 27.6768C35.6269 29.5869 35.3074 30.6249 35.0398 31.3148C34.684 32.2293 34.2599 32.8814 33.5745 33.5665C32.8895 34.2516 32.2357 34.6757 31.3212 35.0318C30.6311 35.3007 29.5931 35.6189 27.6832 35.7058C25.618 35.8009 24.9977 35.8199 19.7661 35.8199C14.5362 35.8199 13.9159 35.8009 11.8508 35.7058ZM11.6893 0.289035C9.60369 0.383962 8.17947 0.714678 6.9341 1.1989C5.646 1.69893 4.5541 2.36987 3.46381 3.45853C2.37507 4.54721 1.70411 5.63905 1.20405 6.92871C0.719831 8.17403 0.389115 9.59817 0.294162 11.6837C0.197628 13.7725 0.175476 14.4402 0.175476 19.7602C0.175476 25.0802 0.197628 25.748 0.294162 27.8367C0.389115 29.9222 0.719831 31.3464 1.20405 32.5917C1.70411 33.8797 2.37349 34.9733 3.46381 36.0619C4.55252 37.1505 5.64442 37.8201 6.9341 38.3216C8.18108 38.8057 9.60369 39.1365 11.6893 39.2313C13.7797 39.3264 14.4459 39.3501 19.7661 39.3501C25.088 39.3501 25.7541 39.328 27.8428 39.2313C29.9287 39.1365 31.3528 38.8057 32.5981 38.3216C33.8864 37.8201 34.9782 37.1505 36.0686 36.0619C37.1572 34.9733 37.8265 33.8797 38.3283 32.5917C38.8124 31.3464 39.1448 29.9222 39.238 27.8367C39.3331 25.7464 39.3552 25.0802 39.3552 19.7602C39.3552 14.4402 39.3331 13.7725 39.238 11.6837C39.1432 9.59817 38.8124 8.17403 38.3283 6.92871C37.8265 5.64063 37.1572 4.54879 36.0686 3.45853C34.9797 2.36987 33.8864 1.69893 32.5997 1.1989C31.3528 0.714678 29.9287 0.382381 27.8444 0.289035C25.7557 0.194081 25.088 0.170349 19.7677 0.170349C14.4459 0.170349 13.7797 0.192501 11.6893 0.289035Z"
    fill="#02AA7B"
  />
</svg>
