<svg width="16" height="16" viewBox="0 0 16 16" fill="none" xmlns="http://www.w3.org/2000/svg">
<path d="M5.05062 8.38871C5.05062 7.00738 6.17021 5.88719 7.55164 5.88719C8.93307 5.88719 10.0533 7.00738 10.0533 8.38871C10.0533 9.77004 8.93307 10.8903 7.55164 10.8903C6.17021 10.8903 5.05062 9.77004 5.05062 8.38871ZM3.69829 8.38871C3.69829 10.5169 5.42339 12.2419 7.55164 12.2419C9.67988 12.2419 11.405 10.5169 11.405 8.38871C11.405 6.26056 9.67988 4.53551 7.55164 4.53551C5.42339 4.53551 3.69829 6.26056 3.69829 8.38871ZM10.657 4.38277C10.657 4.8798 11.0601 5.28348 11.5577 5.28348C12.0548 5.28348 12.4585 4.8798 12.4585 4.38277C12.4585 3.88574 12.0554 3.48266 11.5577 3.48266C11.0601 3.48266 10.657 3.88574 10.657 4.38277ZM4.51963 14.4967C3.788 14.4634 3.39036 14.3415 3.12607 14.2385C2.77571 14.1021 2.52598 13.9397 2.2629 13.6772C2.00044 13.4148 1.83738 13.165 1.7016 12.8147C1.59856 12.5505 1.47672 12.1528 1.44337 11.4212C1.40701 10.6302 1.39974 10.3925 1.39974 8.38871C1.39974 6.38486 1.40762 6.14787 1.44337 5.35622C1.47672 4.62461 1.59916 4.22759 1.7016 3.96272C1.83799 3.61237 2.00044 3.36265 2.2629 3.09958C2.52537 2.83712 2.77511 2.67408 3.12607 2.5383C3.39036 2.43525 3.788 2.31343 4.51963 2.28009C5.3107 2.24372 5.5483 2.23644 7.55164 2.23644C9.55558 2.23644 9.79258 2.24432 10.5843 2.28009C11.3159 2.31343 11.7129 2.43586 11.9778 2.5383C12.3281 2.67408 12.5779 2.83712 12.841 3.09958C13.1035 3.36204 13.2659 3.61237 13.4022 3.96272C13.5054 4.22699 13.6271 4.62461 13.6605 5.35622C13.6968 6.14787 13.7041 6.38486 13.7041 8.38871C13.7041 10.3919 13.6968 10.6295 13.6605 11.4212C13.6271 12.1528 13.5047 12.5505 13.4022 12.8147C13.2659 13.165 13.1035 13.4148 12.841 13.6772C12.5785 13.9397 12.3281 14.1021 11.9778 14.2385C11.7135 14.3415 11.3159 14.4634 10.5843 14.4967C9.79319 14.5331 9.55558 14.5404 7.55164 14.5404C5.5483 14.5404 5.3107 14.5331 4.51963 14.4967ZM4.4578 0.930228C3.65889 0.96659 3.11334 1.09327 2.6363 1.27875C2.14289 1.47029 1.72463 1.7273 1.307 2.14431C0.889954 2.56133 0.632938 2.97956 0.441392 3.47357C0.25591 3.95059 0.129229 4.49611 0.0928565 5.29499C0.0558791 6.0951 0.0473938 6.35086 0.0473938 8.38871C0.0473938 10.4266 0.0558791 10.6823 0.0928565 11.4824C0.129229 12.2813 0.25591 12.8268 0.441392 13.3038C0.632938 13.7972 0.889348 14.2161 1.307 14.6331C1.72403 15.0501 2.14228 15.3066 2.6363 15.4987C3.11396 15.6841 3.65889 15.8108 4.4578 15.8471C5.25853 15.8836 5.51369 15.8926 7.55164 15.8926C9.59019 15.8926 9.84535 15.8842 10.6454 15.8471C11.4444 15.8108 11.9899 15.6841 12.467 15.4987C12.9604 15.3066 13.3786 15.0501 13.7963 14.6331C14.2133 14.2161 14.4697 13.7972 14.6619 13.3038C14.8473 12.8268 14.9747 12.2813 15.0104 11.4824C15.0468 10.6817 15.0553 10.4266 15.0553 8.38871C15.0553 6.35086 15.0468 6.0951 15.0104 5.29499C14.9741 4.49611 14.8473 3.95059 14.6619 3.47357C14.4697 2.98017 14.2133 2.56194 13.7963 2.14431C13.3792 1.7273 12.9604 1.47029 12.4676 1.27875C11.9899 1.09327 11.4444 0.965985 10.646 0.930228C9.84595 0.893856 9.59019 0.884766 7.55224 0.884766C5.51369 0.884766 5.25853 0.893251 4.4578 0.930228Z" fill="white"/>
</svg>
