<svg width="16" height="16" viewBox="0 0 16 16" fill="none" xmlns="http://www.w3.org/2000/svg">
<path fill-rule="evenodd" clip-rule="evenodd" d="M0.547669 2.13861C0.547669 1.80607 0.679768 1.48715 0.91491 1.25201C1.15005 1.01687 1.46897 0.884767 1.80151 0.884767H14.3003C14.4651 0.884495 14.6283 0.91674 14.7807 0.979637C14.933 1.04253 15.0715 1.13486 15.188 1.25132C15.3046 1.36779 15.397 1.50611 15.4602 1.65837C15.5233 1.81061 15.5557 1.97381 15.5556 2.13861V14.6374C15.5558 14.8023 15.5234 14.9655 15.4604 15.1179C15.3975 15.2701 15.305 15.4086 15.1885 15.5252C15.0721 15.6417 14.9336 15.7342 14.7814 15.7973C14.629 15.8604 14.4659 15.8928 14.301 15.8927H1.80151C1.63679 15.8927 1.4737 15.8602 1.32153 15.7971C1.16936 15.734 1.03111 15.6416 0.914668 15.5252C0.798227 15.4087 0.705889 15.2703 0.642912 15.1182C0.579944 14.9659 0.547578 14.8028 0.547669 14.6381V2.13861ZM6.48807 6.60683H8.52026V7.62737C8.81356 7.04077 9.564 6.5127 10.6916 6.5127C12.8534 6.5127 13.3658 7.68124 13.3658 9.82533V13.797H11.178V10.3139C11.178 9.09274 10.8847 8.40374 10.1398 8.40374C9.10625 8.40374 8.67644 9.14662 8.67644 10.3139V13.797H6.48807V6.60683ZM2.7361 13.7036H4.92451V6.5127H2.7361V13.7036ZM5.23763 4.1674C5.24176 4.35478 5.20842 4.54109 5.13957 4.7154C5.07071 4.88972 4.96772 5.04852 4.83667 5.1825C4.70561 5.31648 4.54911 5.42293 4.37635 5.4956C4.2036 5.56828 4.01807 5.60572 3.83065 5.60572C3.64323 5.60572 3.45768 5.56828 3.28493 5.4956C3.11218 5.42293 2.95568 5.31648 2.82462 5.1825C2.69356 5.04852 2.59058 4.88972 2.52173 4.7154C2.45287 4.54109 2.41953 4.35478 2.42366 4.1674C2.43175 3.79961 2.58354 3.44961 2.84652 3.19236C3.1095 2.9351 3.46276 2.79106 3.83065 2.79106C4.19852 2.79106 4.55178 2.9351 4.81476 3.19236C5.07774 3.44961 5.22953 3.79961 5.23763 4.1674Z" fill="white"/>
</svg>
