<svg width="17" height="14" viewBox="0 0 17 14" fill="none" xmlns="http://www.w3.org/2000/svg">
<path d="M16.6155 2.41546C16.0175 2.67373 15.3803 2.84492 14.716 2.92804C15.3994 2.52629 15.921 1.89497 16.1662 1.13403C15.529 1.50807 14.8256 1.77227 14.0759 1.91971C13.4708 1.28543 12.6086 0.892578 11.6679 0.892578C9.84279 0.892578 8.37348 2.35114 8.37348 4.13922C8.37348 4.3965 8.39558 4.64389 8.44986 4.8794C5.70928 4.74779 3.28424 3.45447 1.65515 1.48432C1.37073 1.97018 1.2039 2.52629 1.2039 3.12496C1.2039 4.24907 1.79183 5.24552 2.66818 5.82243C2.13855 5.81254 1.61897 5.6611 1.17878 5.42269V5.4583C1.17878 7.03557 2.32146 8.34577 3.81989 8.64754C3.55157 8.71978 3.25911 8.75439 2.9556 8.75439C2.74455 8.75439 2.5315 8.74248 2.33151 8.699C2.75863 9.98438 3.97065 10.9293 5.41181 10.96C4.29024 11.824 2.86616 12.3444 1.3245 12.3444C1.05415 12.3444 0.794869 12.3326 0.535583 12.2999C1.99583 13.2271 3.72644 13.7565 5.5927 13.7565C11.6589 13.7565 14.9753 8.80887 14.9753 4.5202C14.9753 4.37672 14.9703 4.23818 14.9632 4.10063C15.6175 3.64348 16.1672 3.07251 16.6155 2.41546Z" fill="white"/>
</svg>
