<svg
  width="42"
  height="28"
  viewBox="0 0 42 28"
  fill="none"
  xmlns="http://www.w3.org/2000/svg"
>
<path
    d="M41.0918 4.40394C40.8564 3.56403 40.3973 2.80361 39.764 2.20351C39.1128 1.58499 38.3146 1.14254 37.4446 0.917931C34.1892 0.0602879 21.1467 0.0602883 21.1467 0.0602883C15.7095 -0.0015423 10.2736 0.270408 4.86972 0.874615C3.99985 1.1158 3.2031 1.56815 2.55036 2.1914C1.90899 2.8082 1.44441 3.56881 1.20172 4.4022C0.618771 7.54124 0.335508 10.7285 0.355806 13.9211C0.335007 17.1108 0.617552 20.2972 1.20172 23.44C1.43921 24.27 1.90205 25.0271 2.54516 25.6387C3.18826 26.2503 3.98912 26.6921 4.86972 26.926C8.16845 27.7819 21.1467 27.7819 21.1467 27.7819C26.591 27.8439 32.0339 27.5719 37.4446 26.9676C38.3146 26.743 39.1128 26.3005 39.764 25.682C40.3971 25.0822 40.8555 24.3216 41.09 23.4816C41.6883 20.3437 41.9792 17.1552 41.9585 13.961C42.0036 10.7533 41.7131 7.55133 41.0918 4.40394ZM17.0004 19.8536V7.99041L27.8517 13.9229L17.0004 19.8536Z"
    fill="#02AA7B"
  />
</svg>
