<svg width="20" height="14" viewBox="0 0 20 14" fill="none" xmlns="http://www.w3.org/2000/svg">
<path d="M18.9113 2.91093C18.8021 2.52142 18.5893 2.16878 18.2956 1.89048C17.9936 1.60364 17.6234 1.39846 17.2199 1.29429C15.7103 0.896562 9.66181 0.896562 9.66181 0.896562C7.14031 0.867889 4.6194 0.994005 2.11335 1.27421C1.70995 1.38606 1.34046 1.59583 1.03775 1.88486C0.740315 2.17091 0.524867 2.52364 0.412321 2.91012C0.141977 4.36585 0.0106139 5.84392 0.0200273 7.32453C0.0103819 8.80372 0.141412 10.2814 0.412321 11.7389C0.522456 12.1238 0.737096 12.4749 1.03534 12.7585C1.33358 13.0422 1.70498 13.2471 2.11335 13.3555C3.64314 13.7524 9.66181 13.7524 9.66181 13.7524C12.1866 13.7812 14.7107 13.6551 17.2199 13.3748C17.6234 13.2707 17.9936 13.0655 18.2956 12.7786C18.5892 12.5005 18.8017 12.1477 18.9105 11.7582C19.188 10.303 19.3228 8.82431 19.3133 7.34299C19.3341 5.85542 19.1995 4.37053 18.9113 2.91093ZM7.73894 10.0757V4.57415L12.7712 7.32533L7.73894 10.0757Z" fill="white"/>
</svg>
